HIERARCHY
ROOT Hips
{
	OFFSET 0.000000 0.000000 0.000000
	CHANNELS 6 Xposition Yposition Zposition Xrotation Yrotation Zrotation
	JOINT LeftUpLeg_virtual
	{
		OFFSET 0.000000 0.000000 0.000000
		CHANNELS 3 Xrotation Yrotation Zrotation
		JOINT LeftUpLeg
		{
			OFFSET 11.394100 -6.187798 -0.413800
			CHANNELS 3 Xrotation Yrotation Zrotation
			JOINT LeftLeg
			{
				OFFSET 0.430247 -32.302673 3.732800
				CHANNELS 3 Xrotation Yrotation Zrotation
				JOINT LeftFoot
				{
					OFFSET -0.430247 -48.264931 -6.423300
					CHANNELS 3 Xrotation Yrotation Zrotation
					JOINT LeftToeBase
					{
						OFFSET 4.230900 -16.068199 23.438400
						CHANNELS 3 Xrotation Yrotation Zrotation
						JOINT LeftToe_End
						{
							OFFSET 4.510700 0.695400 19.974600
							CHANNELS 3 Xrotation Yrotation Zrotation
							End Site
							{
								OFFSET 0 0 0
							}
						}
					}
				}
			}
		}
	}
	JOINT RightUpLeg_virtual
	{
		OFFSET 0.000000 0.000000 0.000000
		CHANNELS 3 Xrotation Yrotation Zrotation
		JOINT RightUpLeg
		{
			OFFSET -11.333700 -6.187798 -0.413800
			CHANNELS 3 Xrotation Yrotation Zrotation
			JOINT RightLeg
			{
				OFFSET -0.430392 -32.302628 3.733000
				CHANNELS 3 Xrotation Yrotation Zrotation
				JOINT RightFoot
				{
					OFFSET 0.430392 -48.264973 -6.423500
					CHANNELS 3 Xrotation Yrotation Zrotation
					JOINT RightToeBase
					{
						OFFSET -4.230900 -16.068199 23.438400
						CHANNELS 3 Xrotation Yrotation Zrotation
						JOINT RightToe_End
						{
							OFFSET -4.510700 0.695400 19.974600
							CHANNELS 3 Xrotation Yrotation Zrotation
							End Site
							{
								OFFSET 0 0 0
							}
						}
					}
				}
			}
		}
	}
	JOINT Spine_virtual
	{
		OFFSET 0.000000 0.000000 0.000000
		CHANNELS 3 Xrotation Yrotation Zrotation
		JOINT Spine
		{
			OFFSET -0.002400 12.777504 0.315300
			CHANNELS 3 Xrotation Yrotation Zrotation
			JOINT Spine1
			{
				OFFSET -0.002067 5.816869 0.032633
				CHANNELS 3 Xrotation Yrotation Zrotation
				JOINT Spine1_split
				{
					OFFSET -0.002067 5.816869 0.032633
					CHANNELS 3 Xrotation Yrotation Zrotation
					JOINT Spine2
					{
						OFFSET -0.002067 5.816869 0.032633
						CHANNELS 3 Xrotation Yrotation Zrotation
						JOINT Neck_virtual
						{
							OFFSET 0.000000 0.000000 0.000000
							CHANNELS 3 Xrotation Yrotation Zrotation
							JOINT Neck
							{
								OFFSET -0.003700 21.199493 -0.826900
								CHANNELS 3 Xrotation Yrotation Zrotation
								JOINT Head
								{
									OFFSET 0.000000 20.442200 4.834800
									CHANNELS 3 Xrotation Yrotation Zrotation
									JOINT HeadTop_End
									{
										OFFSET 0.000000 34.668396 4.968400
										CHANNELS 3 Xrotation Yrotation Zrotation
										End Site
										{
											OFFSET 0 0 0
										}
									}
								}
							}
						}
						JOINT LeftShoulder_virtual
						{
							OFFSET 0.000000 0.000000 0.000000
							CHANNELS 3 Xrotation Yrotation Zrotation
							JOINT LeftShoulder
							{
								OFFSET 3.288150 8.794197 -1.372250
								CHANNELS 3 Xrotation Yrotation Zrotation
								JOINT LeftShoulder_split
								{
									OFFSET 3.288150 8.794197 -1.372250
									CHANNELS 3 Xrotation Yrotation Zrotation
									JOINT LeftArm
									{
										OFFSET 11.953299 -2.279007 -0.146200
										CHANNELS 3 Xrotation Yrotation Zrotation
										JOINT LeftForeArm
										{
											OFFSET 18.448900 0.000000 0.000000
											CHANNELS 3 Xrotation Yrotation Zrotation
											JOINT LeftHand
											{
												OFFSET 29.527798 0.000000 0.000000
												CHANNELS 3 Xrotation Yrotation Zrotation
												End Site
												{
													OFFSET 0 0 0
												}
											}
										}
									}
								}
							}
						}
						JOINT RightShoulder_virtual
						{
							OFFSET 0.000000 0.000000 0.000000
							CHANNELS 3 Xrotation Yrotation Zrotation
							JOINT RightShoulder
							{
								OFFSET -3.249400 8.794197 -1.372250
								CHANNELS 3 Xrotation Yrotation Zrotation
								JOINT RightShoulder_split
								{
									OFFSET -3.249400 8.794197 -1.372250
									CHANNELS 3 Xrotation Yrotation Zrotation
									JOINT RightArm
									{
										OFFSET -11.953299 -2.279007 -0.146200
										CHANNELS 3 Xrotation Yrotation Zrotation
										JOINT RightForeArm
										{
											OFFSET -18.448900 0.000000 0.000000
											CHANNELS 3 Xrotation Yrotation Zrotation
											JOINT RightHand
											{
												OFFSET -29.527802 0.000000 0.000000
												CHANNELS 3 Xrotation Yrotation Zrotation
												End Site
												{
													OFFSET 0 0 0
												}
											}
										}
									}
								}
							}
						}
					}
				}
			}
		}
	}
}
MOTION
Frames: 4
Frame Time: 0.03333333
2.563617 93.004868 2.851517 0.000000 0.000000 0.000000 -2.436050 -49.519633 -4.286973 -34.438152 4.181643 14.989091 38.178852 -13.710531 3.676174 -4.068800 -4.365329 -5.486861 -2.516751 -3.255322 2.057829 0.000000 0.000000 0.000000 -3.092018 -46.938829 -3.679214 -6.667944 -0.380886 -11.760835 26.015332 -12.128336 -2.010710 -18.372343 -2.416776 19.863435 -4.330027 0.240496 2.648618 0.000000 0.000000 0.000000 -5.100696 -48.722919 -4.982574 10.926692 7.009993 0.777540 10.948873 9.751675 -4.023396 -0.986250 1.807754 0.596289 0.000000 0.000000 0.000000 12.201081 9.541582 -4.753680 -17.070263 -3.391583 2.944571 2.195392 23.346461 -5.891944 0.000000 0.000000 0.000000 13.594208 8.855710 -3.535723 0.537730 -2.586007 -10.052856 0.780174 1.574582 2.915048 -11.360016 -4.981694 -58.337923 8.686175 -58.830141 -0.436035 0.000000 0.000000 0.000000 10.475996 9.723474 -3.130174 1.167696 17.027723 6.263258 3.541476 -0.000076 2.038325 -18.746069 -21.836900 69.032613 3.514532 47.920932 -2.628396 0.000000 0.000000 0.000000 
3.989424 92.928246 1.812572 0.000000 0.000000 0.000000 -0.104385 -50.816498 -2.714870 -36.676043 2.122951 15.302805 37.861470 -12.865466 3.324155 -3.043799 -3.744400 -4.405204 -1.350700 -3.129528 1.831418 0.000000 0.000000 0.000000 -1.408773 -47.304534 -2.558508 -8.194857 -0.718465 -12.649655 28.282389 -11.505526 -1.940185 -18.375782 -1.922993 20.404613 -1.824231 -0.044534 2.520490 0.000000 0.000000 0.000000 -2.949313 -49.642559 -3.504320 10.887989 7.228266 0.869267 11.232352 9.550182 -3.992693 -0.295643 0.651001 1.322783 0.000000 0.000000 0.000000 12.613736 9.375582 -4.785624 -16.997143 -2.184521 3.430887 1.680813 24.594292 -6.289406 0.000000 0.000000 0.000000 13.750674 8.632207 -3.750734 0.249099 -3.759756 -8.895223 -0.768162 -1.440055 0.248439 -11.875901 -3.905146 -57.780682 6.163555 -52.605390 -1.721745 0.000000 0.000000 0.000000 10.498877 9.583402 -3.241861 0.721071 16.969378 6.580908 4.940470 0.111061 1.927418 -16.209468 -21.691214 68.923890 3.074978 50.402298 -2.388082 0.000000 0.000000 0.000000 
5.827750 91.527687 0.023407 0.000000 0.000000 0.000000 3.430439 -51.613865 0.616083 -42.497738 -0.455469 14.878997 39.072893 -10.836216 2.914260 -1.761714 -1.815574 -4.259072 0.426473 -2.825617 1.077976 0.000000 0.000000 0.000000 1.841810 -47.639630 0.323379 -14.747603 -0.041460 -14.263837 33.941163 -11.094169 -1.669156 -17.726188 -1.378844 20.887815 -0.241146 -0.301905 1.697976 0.000000 0.000000 0.000000 1.070025 -50.342439 0.050868 10.935713 7.271445 0.649926 11.818783 9.081088 -4.011479 -0.034038 -0.563611 0.926222 0.000000 0.000000 0.000000 13.434496 8.823548 -4.895395 -18.547252 -1.052548 4.594524 0.345590 26.993534 -7.019096 0.000000 0.000000 0.000000 14.052071 8.128485 -4.032244 -0.221863 -5.401621 -7.092471 -2.499845 -4.849040 -2.846576 -12.988928 -7.100299 -55.532744 7.471568 -45.053055 0.014924 0.000000 0.000000 0.000000 10.961342 9.108986 -3.448004 -0.093840 16.769800 7.184028 5.440396 1.111259 1.923916 -13.527623 -19.857525 67.250350 1.892467 52.602879 -1.506949 0.000000 0.000000 0.000000 
7.729744 88.998833 -2.217434 0.000000 0.000000 0.000000 8.245558 -51.729790 5.536845 -50.870272 -3.010544 13.024277 42.240219 -8.261162 2.652068 -0.110753 0.733480 -5.899191 1.487480 -2.400547 0.134594 0.000000 0.000000 0.000000 6.407124 -48.266222 4.903200 -25.664473 1.700645 -16.432573 42.425536 -10.886251 -1.293486 -16.990995 -0.685541 20.766010 0.602521 -0.547262 0.413696 0.000000 0.000000 0.000000 6.784301 -50.438471 5.495020 10.854057 7.100298 0.110047 12.577559 8.340942 -4.024674 -0.757313 -1.851680 0.464177 0.000000 0.000000 0.000000 14.425177 8.011732 -4.986085 -21.519973 -0.037428 6.114759 -1.126420 30.122166 -7.925344 0.000000 0.000000 0.000000 14.447682 7.398878 -4.231485 -0.774001 -6.920530 -5.425073 -3.197578 -6.763827 -5.556425 -15.376248 -12.741200 -52.316565 10.132401 -38.374284 2.532035 0.000000 0.000000 0.000000 11.818708 8.319304 -3.686131 -1.094418 16.671365 8.229784 4.815633 2.985174 2.232957 -11.136538 -16.555233 64.189988 0.057962 53.727757 0.130102 0.000000 0.000000 0.000000 
